<?xml version="1.0" encoding="UTF-8"?>
<svg id="Layer_2" xmlns="http://www.w3.org/2000/svg" viewBox="0 0 195.22 147.49">
    <defs>
        <style>.cls-1{fill:#fff;stroke-linejoin:round;}.cls-1,.cls-2{stroke-width:12px;}.cls-1,.cls-2,.cls-3{stroke:#000;}.cls-2{fill:#6A4692;}.cls-2,.cls-3{stroke-miterlimit:10;}.cls-3{fill:none;stroke-width:9px;}</style>
    </defs>
    <g id="Layer_1-2">
        <path class="cls-2" d="m161.03,118.2l-91.17-15.55c-15.57-2.66-28.19-17.43-28.19-33V29.8c0-15.57,12.62-26.04,28.19-23.39l91.17,15.55c15.57,2.66,28.19,17.43,28.19,33v39.85c0,15.57-12.62,26.04-28.19,23.39Z"/>
        <path class="cls-1" d="m44.19,125.52l91.17,15.55c15.57,2.66,28.19-7.81,28.19-23.39v-39.85c0-15.57-12.62-30.35-28.19-33l-91.17-15.55c-15.57-2.66-28.19,7.81-28.19,23.39v39.85l-10,36.97,38.19-3.96Z"/>
        <path class="cls-3" d="m33.82,62.57c37.54,38.06,75.09-29.9,112.63,18.53"/>
        <path class="cls-3" d="m33.8,91.98c37.54,38.06,75.09-29.9,112.63,18.53"/>
    </g>
</svg>