<?xml version="1.0" encoding="UTF-8"?>
    <svg id="Layer_2" xmlns="http://www.w3.org/2000/svg" viewBox="0 0 179.82 175">
    <defs>
        <style>.cls-1{fill:#fff;}.cls-1,.cls-2{stroke:#000;stroke-miterlimit:10;stroke-width:12px;}.cls-2{fill:#6a4692;}</style>
    </defs>
    <g id="Layer_1-2">
        <ellipse class="cls-1" cx="78.05" cy="95.85" rx="66.02" ry="78.62" transform="translate(-44.25 77.91) rotate(-42.5)"/>
        <path transform="translate(-2 14)" d="m42.62,64.87c-1.3.75-2.03,3.74-1.79,4.71.61,2.47,5.21,9.57,5.59,11.07s-3.27,4.26-5.06,4.39c-2.24.16-12.23-9.84-12.89-12.52-.93-3.75,5.44-13.91,8.19-15.19,6.97-3.1,11.97-4.98,22.29-9.3,1.12-.52,4.59-4.9,5.94-5,1.9-.13,9.26,3.83,9.66,5.44.24.97-4.13,5.85-4.59,9.05-1.01,6.95-2.67,42.09-1.37,47.35.85,3.43,5.93,6.03,8.51,5.85,3.25-.23,13.5-10.76,13.78-14.71.79-13.37,1.85-34.83,2.84-46.03.38-3.52,5.21-9.31,6.44-9.4,1.9-.13,9.04,3.85,9.43,5.45.24.97-3.51,5.15-3.57,8.11-.59,15.1-3.29,44.64-1.59,51.51.35,1.39,4.36,4.28,4.6,5.24.4,1.61-4.79,6.88-6.69,7.01-1.34.09-9.07-5.81-9.97-9.45,0,0-9.62,10.82-13.98,11.12-5.48.38-21.73-5.91-23.45-12.88-1.43-5.79.46-39.53,1.03-44.59.32-3.3,2.8-6.63,2.8-6.63,0,0-9.29,5.23-16.11,9.41Z"/>
    </g>
</svg>