<?xml version="1.0" encoding="UTF-8"?>
    <svg id="Layer_2" xmlns="http://www.w3.org/2000/svg" viewBox="0 0 179.82 175">
    <defs>
        <style>.cls-1{fill:#fff;}.cls-1,.cls-2{stroke:#000;stroke-miterlimit:10;stroke-width:12px;}.cls-2{fill:#6a4692;}</style>
    </defs>
    <g id="Layer_1-2">
        <ellipse class="cls-2" cx="101.77" cy="79.15" rx="66.02" ry="78.62" transform="translate(-26.74 89.55) rotate(-42.5)"/>
        <ellipse class="cls-1" cx="78.05" cy="95.85" rx="66.02" ry="78.62" transform="translate(-44.25 77.91) rotate(-42.5)"/>
        <path d="m47.84,74.35c-1.44.41-2.87,3.14-2.87,4.14,0,2.54,2.76,10.54,2.76,12.09s-4.2,3.35-5.97,3.04c-2.21-.39-9.5-12.49-9.5-15.26,0-3.87,8.62-12.2,11.6-12.78,7.51-1.34,12.82-1.96,23.87-3.67,1.22-.23,5.64-3.66,6.96-3.42,1.88.33,8.07,5.94,8.07,7.6,0,.99-5.42,4.69-6.63,7.68-2.65,6.5-12.71,40.21-12.71,45.63,0,3.54,4.31,7.27,6.85,7.72,3.2.56,15.69-7.2,16.91-10.97,3.98-12.79,10.17-33.36,13.81-44,1.21-3.32,7.29-7.79,8.51-7.57,1.88.33,7.85,5.9,7.85,7.56,0,.99-4.64,4.16-5.42,7.01-4.2,14.52-13.92,42.54-13.92,49.62,0,1.44,3.2,5.2,3.2,6.2,0,1.66-6.3,5.53-8.18,5.2-1.33-.23-7.4-7.82-7.4-11.57,0,0-11.94,8.19-16.25,7.44-5.42-.95-19.67-10.96-19.67-18.14,0-5.97,9.95-38.26,11.71-43.04,1.11-3.12,4.31-5.77,4.31-5.77,0,0-10.28,2.84-17.9,5.27Z"/>
    </g>
</svg>