<?xml version="1.0" encoding="UTF-8"?>
    <svg id="Layer_2" xmlns="http://www.w3.org/2000/svg" viewBox="0 0 179.82 175">
    <defs>
        <style>.cls-1{fill:#fff;}.cls-1,.cls-2{stroke:#000;stroke-miterlimit:10;stroke-width:12px;}.cls-2{fill:#6a4692;}</style>
    </defs>
    <g id="Layer_1-2">
        <ellipse class="cls-1" cx="78.05" cy="95.85" rx="66.02" ry="78.62" transform="translate(-44.25 77.91) rotate(-42.5)"/>
        <path transform="translate(0 -3)" d="m42.96,75.85c-1.28.48-2.01,3.36-1.77,4.39.6,2.63,5.14,10.78,5.51,12.38s-3.23,3.63-5,3.38c-2.21-.31-12.07-12.53-12.72-15.38-.92-4,5.38-12.94,8.1-13.66,6.89-1.68,11.83-2.53,22.02-4.74,1.11-.29,4.54-4,5.87-3.81,1.88.26,9.14,5.82,9.53,7.53.24,1.03-4.08,5.06-4.54,8.2-1.01,6.82-2.67,42.05-1.39,47.64.84,3.65,5.85,7.34,8.4,7.7,3.21.45,13.34-8.06,13.62-12,.79-13.37,1.85-34.87,2.83-46,.38-3.48,5.15-8.33,6.37-8.16,1.88.26,8.92,5.79,9.31,7.5.24,1.03-3.47,4.48-3.53,7.46-.59,15.16-3.28,44.5-1.61,51.81.34,1.48,4.3,5.25,4.54,6.27.39,1.71-4.73,5.96-6.61,5.7-1.33-.19-8.95-7.78-9.84-11.66,0,0-9.51,8.93-13.82,8.33-5.42-.76-21.46-10.54-23.16-17.96-1.41-6.16.48-39.93,1.05-44.93.32-3.27,2.77-6.13,2.77-6.13,0,0-9.18,3.35-15.92,6.15Z"/>
    </g>
</svg>