<?xml version="1.0" standalone="no"?>
<!DOCTYPE svg PUBLIC "-//W3C//DTD SVG 20010904//EN"
 "http://www.w3.org/TR/2001/REC-SVG-20010904/DTD/svg10.dtd">
<svg version="1.0" xmlns="http://www.w3.org/2000/svg"
 width="958.000000pt" height="958.000000pt" viewBox="0 0 958.000000 958.000000"
 preserveAspectRatio="xMidYMid meet">
<metadata>
Created by potrace 1.14, written by Peter Selinger 2001-2017
</metadata>
<g transform="translate(0.000000,958.000000) scale(0.100000,-0.100000)"
fill="#000000" stroke="none">
<path d="M2135 8270 c-764 -523 -1406 -966 -1426 -986 -21 -20 -48 -60 -61
-88 l-23 -51 -3 -2765 c-3 -3142 -12 -2832 86 -2930 32 -31 73 -62 92 -68 19
-6 1266 -241 2770 -522 2141 -400 2746 -510 2787 -506 28 2 72 15 97 28 31 15
446 410 1276 1211 l1230 1189 0 2714 0 2714 -22 5 c-55 13 -5382 1005 -5396
1005 -10 0 -642 -428 -1407 -950z m4135 150 c1273 -237 2323 -434 2332 -438
12 -5 -88 -80 -380 -283 -218 -152 -742 -518 -1164 -812 l-768 -535 -1227 229
c-675 126 -1231 229 -1235 229 -5 0 -8 465 -8 1033 l0 1034 68 -13 c37 -7
1109 -206 2382 -444z m-2744 -1547 c-7 -7 -1967 362 -1967 370 0 4 442 372
983 817 l983 808 3 -996 c1 -547 0 -997 -2 -999z m5140 -3740 c-2 -2 -450 80
-997 182 -547 102 -1009 188 -1026 191 l-33 6 1 1182 1 1181 1027 1017 1026
1017 3 -2386 c1 -1313 0 -2388 -2 -2390z m-5276 2917 c47 -6 97 -13 113 -16
l27 -6 -2 -1105 -3 -1106 -744 -528 c-743 -527 -744 -528 -761 -506 -38 48
-171 257 -217 342 -283 511 -387 1107 -282 1614 123 598 520 1051 1082 1235
95 32 267 70 357 79 79 8 351 6 430 -3z m713 -200 c292 -130 574 -328 827
-580 373 -373 622 -800 750 -1285 32 -122 64 -294 56 -303 -3 -3 -432 75 -953
172 -522 97 -951 176 -955 176 -5 0 -8 434 -8 965 l0 965 96 -35 c53 -19 137
-53 187 -75z m568 -2269 c592 -111 1080 -201 1084 -201 10 0 -2 -181 -21 -300
-29 -186 -93 -390 -173 -548 -52 -103 -166 -264 -251 -355 -240 -256 -553
-423 -918 -489 -158 -28 -446 -30 -612 -5 -407 64 -805 234 -1149 490 -126 94
-361 302 -361 320 0 7 289 301 643 655 505 505 646 642 662 638 11 -3 504 -95
1096 -205z m2979 -556 c547 -102 995 -187 996 -188 1 -2 -1956 -1550 -2011
-1590 l-25 -19 0 996 0 996 23 -5 c12 -3 470 -89 1017 -190z"/>
</g>
</svg>
