<?xml version="1.0" encoding="UTF-8"?>
<svg id="Layer_2" xmlns="http://www.w3.org/2000/svg" viewBox="0 0 341.29 340.58">
    <defs><style>.cls-1{fill:#fff;}.cls-1,.cls-2{stroke:#000;stroke-miterlimit:3.97;stroke-width:12px;}.cls-2{fill:#6A4692;}</style></defs><g id="Layer_1-2"><path class="cls-2" d="m335.29,191.81c0,6.74-5.46,11.25-12.2,10.07s-12.2-7.59-12.2-14.33c0-72.65-59.1-142.07-131.75-154.75C106.5,20.12,47.4,68.9,47.4,141.55s59.1,142.07,131.75,154.75c21.25,3.71,41.54,2.35,60.28-4.04,5.99-2.04,13.35,1.59,16.43,8.12,3.09,6.53.74,13.47-5.25,15.52-21.93,7.48-46.64,9.14-71.46,4.81-41.71-7.28-80.92-30.37-110.41-65.01-29.49-34.64-45.73-76.69-45.73-118.4s16.24-78.08,45.73-102.43C98.23,10.52,137.44,1.12,179.15,8.4c41.71,7.28,80.92,30.37,110.41,65.01,29.49,34.64,45.73,76.69,45.73,118.4h0Zm-14.72,41.82c4.86,5.52,5.01,13.27.34,17.31-9.81,8.49-23.01,11.81-37.16,9.34-19.71-3.44-36.86-17.56-45.53-35.37-14.22,14.28-35.43,21.24-59.08,17.11-42.71-7.46-77.46-48.27-77.46-90.99s34.75-71.4,77.46-63.94c42.71,7.46,77.46,48.27,77.46,90.99v25.92c0,14.97,12.18,29.27,27.14,31.88,7.45,1.3,14.4-.45,19.57-4.92,4.67-4.04,12.39-2.85,17.25,2.67Zm-88.36-59.82c0-29.26-23.81-57.22-53.07-62.33-29.26-5.11-53.07,14.54-53.07,43.8s23.81,57.22,53.07,62.33c29.26,5.11,53.07-14.54,53.07-43.8h0Z"/><path class="cls-1" d="m318.29,203.33c0,6.74-5.46,11.25-12.2,10.07s-12.2-7.59-12.2-14.33c0-72.65-59.1-142.07-131.75-154.75C89.5,31.64,30.4,80.43,30.4,153.07s59.1,142.07,131.75,154.75c21.25,3.71,41.54,2.35,60.28-4.04,5.99-2.04,13.35,1.59,16.43,8.12,3.09,6.53.74,13.47-5.25,15.52-21.93,7.48-46.64,9.14-71.46,4.81-41.71-7.28-80.92-30.37-110.41-65.01C22.24,232.57,6,190.52,6,148.81S22.24,70.73,51.73,46.38c29.49-24.34,68.7-33.74,110.41-26.46,41.71,7.28,80.92,30.37,110.41,65.01,29.49,34.64,45.73,76.69,45.73,118.4h0Zm-14.72,41.82c4.86,5.52,5.01,13.27.34,17.31-9.81,8.49-23.01,11.81-37.16,9.34-19.71-3.44-36.86-17.56-45.53-35.37-14.22,14.28-35.43,21.24-59.08,17.11-42.71-7.46-77.46-48.27-77.46-90.99s34.75-71.4,77.46-63.94c42.71,7.46,77.46,48.27,77.46,90.99v25.92c0,14.97,12.18,29.27,27.14,31.88,7.45,1.3,14.4-.45,19.57-4.92,4.67-4.04,12.39-2.85,17.25,2.67Zm-88.36-59.82c0-29.26-23.81-57.22-53.07-62.33-29.26-5.11-53.07,14.54-53.07,43.8s23.81,57.22,53.07,62.33c29.26,5.11,53.07-14.54,53.07-43.8h0Z"/></g></svg>