<?xml version="1.0" encoding="UTF-8"?><svg id="Layer_2" xmlns="http://www.w3.org/2000/svg" xmlns:xlink="http://www.w3.org/1999/xlink" viewBox="0 0 995.59 211.54"><defs><style>.cls-1{font-family:Rubik-ExtraBold, Rubik;}.cls-1,.cls-2{fill:#713e96;}.cls-3{stroke:#000;stroke-linejoin:round;stroke-width:14px;}.cls-3,.cls-4{fill:none;}.cls-5,.cls-6,.cls-7,.cls-8,.cls-9,.cls-10,.cls-11{fill:#fff;}.cls-6{letter-spacing:-.03em;}.cls-6,.cls-7,.cls-8,.cls-9,.cls-10,.cls-11{font-family:Rubik-Medium, Rubik;}.cls-7{letter-spacing:.03em;}.cls-8{letter-spacing:-.03em;}.cls-9{letter-spacing:0em;}.cls-10{letter-spacing:-.04em;}.cls-12{font-size:110px;}.cls-11{letter-spacing:-.02em;}</style><symbol id="FINAL" viewBox="0 0 225.16 239.2"><g><polyline class="cls-5" points="81.39 14.36 13.15 60.89 13.15 200.09 147.58 225.14 212.03 169.39 212.03 37.78"/><path d="M88.19,17.36l121.56,22.69v121.31l-121.56-22.69V17.36m-7-8.43V144.49l135.56,25.3V34.24L81.19,8.93h0Z"/><path d="M85.41,140.93l-59.05,59.01c-2.74,2.74-7.19,2.74-9.93,0-2.74-2.74-2.74-7.19,0-9.93,.27-.27,.6-.54,.9-.76l68.08-48.31h0Z"/><path d="M216.74,169.79l-60.28,58.2c-2.79,2.69-7.24,2.62-9.93-.17-2.69-2.79-2.62-7.24,.17-9.93,.28-.27,.6-.53,.91-.74l61.65-48.74,7.47,1.4h0Z"/><path d="M216.74,34.24l-57.19,56.88c-2.75,2.74-7.2,2.72-9.94-.03-2.74-2.75-2.72-7.2,.03-9.94,.28-.28,.62-.56,.94-.78l66.17-46.14h0Z"/><path class="cls-4" d="M150.84,223.14"/><path class="cls-4" d="M210.45,168.44"/><path class="cls-5" d="M78.65,0S4.66,50.73,2.48,52.17s-2.48,4.69-2.48,5.95V204.29c0,3.71,3.21,7.2,7.59,8.02,4.38,.82,137.59,25.76,142.28,26.58s7.96-.02,10.15-2.13l65.15-62.9V27.35L78.65,0Z"/><path d="M81.19,8.93v8.44L20.45,67.33c-2.8,2.69-7.24,2.6-9.93-.2-2.69-2.8-2.6-7.24,.2-9.93,.28-.27,.6-.52,.91-.74L81.19,8.93h0Z"/><path class="cls-2" d="M15.44,62.7V198.26l135.56,25.3V88.01L15.44,62.7ZM83.27,196.68c-29.59-6.46-53.58-35.8-53.58-65.52,0-29.72,23.99-48.57,53.58-42.11,29.59,6.46,53.58,35.8,53.58,65.52,0,29.72-23.99,48.57-53.58,42.11Z"/><polygon class="cls-3" points="15.44 62.7 15.44 198.26 151 223.57 151 88.01 15.44 62.7"/><polyline class="cls-5" points="81.39 14.36 13.15 60.89 13.15 200.09 147.58 225.14 212.03 169.39 212.03 37.78"/><path d="M88.19,17.36l121.56,22.69v121.31l-121.56-22.69V17.36m-7-8.43V144.49l135.56,25.3V34.24L81.19,8.93h0Z"/><path d="M85.41,140.93l-59.05,59.01c-2.74,2.74-7.19,2.74-9.93,0-2.74-2.74-2.74-7.19,0-9.93,.27-.27,.6-.54,.9-.76l68.08-48.31h0Z"/><path d="M216.74,169.79l-60.28,58.2c-2.79,2.69-7.24,2.62-9.93-.17-2.69-2.79-2.62-7.24,.17-9.93,.28-.27,.6-.53,.91-.74l61.65-48.74,7.47,1.4h0Z"/><path d="M150.58,80.38l66.17-46.14-57.19,56.88c-2.75,2.74-7.2,2.72-9.94-.03-3.08-3.03-2.59-8.28,.96-10.72h0Z"/><path class="cls-4" d="M150.84,223.14"/><path class="cls-4" d="M210.45,168.44"/><path d="M81.19,8.93v8.44L20.45,67.33c-2.8,2.69-7.24,2.6-9.93-.2-2.69-2.8-2.6-7.24,.2-9.93,.28-.27,.6-.52,.91-.74L81.19,8.93h0Z"/><path class="cls-2" d="M15.44,62.7V198.26l135.56,25.3V88.01L15.44,62.7ZM83.27,196.68c-29.59-6.46-53.58-35.8-53.58-65.52,0-29.72,23.99-48.57,53.58-42.11,29.59,6.46,53.58,35.8,53.58,65.52,0,29.72-23.99,48.57-53.58,42.11Z"/><polygon class="cls-3" points="15.44 62.7 15.44 198.26 151 223.57 151 88.01 15.44 62.7"/></g></symbol></defs><g id="Layer_1-2"><g><text class="cls-12" transform="translate(215.75 146.96)"><tspan class="cls-6" x="0" y="0">O</tspan><tspan class="cls-7" x="72.71" y="0">r</tspan><tspan class="cls-11" x="122.21" y="0">th</tspan><tspan class="cls-6" x="234.63" y="0">og</tspan><tspan class="cls-10" x="360.03" y="0">r</tspan><tspan class="cls-8" x="401.28" y="0">aphic</tspan><tspan class="cls-9" x="673.96" y="0">s</tspan><tspan class="cls-1" x="733.03" y="0">.</tspan></text><use width="225.16" height="239.2" transform="scale(.88)" xlink:href="#FINAL"/></g></g></svg>