<?xml version="1.0" encoding="UTF-8"?><svg id="Layer_2" xmlns="http://www.w3.org/2000/svg" viewBox="0 0 995.59 211.54"><defs><style>.cls-1{letter-spacing:-.04em;}.cls-1,.cls-2,.cls-3,.cls-4,.cls-5,.cls-6,.cls-7{fill:#fff;}.cls-1,.cls-3,.cls-4,.cls-5,.cls-6,.cls-7{font-family:Rubik-Medium, Rubik;font-weight:500;}.cls-8{fill:none;stroke:#000;stroke-linejoin:round;stroke-width:14px;}.cls-9,.cls-10{fill:#6a4692;}.cls-3{letter-spacing:.03em;}.cls-4{letter-spacing:-.02em;}.cls-11{fill:#713e96;}.cls-5{letter-spacing:-.03em;}.cls-6{letter-spacing:0em;}.cls-10{font-family:Rubik-ExtraBold, Rubik;font-weight:700;}.cls-7{letter-spacing:-.03em;}.cls-12{font-size:110px;}</style></defs><g id="Layer_1-2"><text class="cls-12" transform="translate(215.75 146.96)"><tspan class="cls-7" x="0" y="0">O</tspan><tspan class="cls-3" x="72.71" y="0">r</tspan><tspan class="cls-4" x="122.21" y="0">th</tspan><tspan class="cls-7" x="234.63" y="0">og</tspan><tspan class="cls-1" x="360.03" y="0">r</tspan><tspan class="cls-5" x="401.28" y="0">aphic</tspan><tspan class="cls-6" x="673.96" y="0">s</tspan><tspan class="cls-10" x="733.03" y="0">.</tspan></text><polyline class="cls-2" points="71.51 12.7 11.56 53.85 11.56 176.95 129.66 199.1 186.28 149.8 186.28 33.41"/><path d="m78.32,16.34l105.09,19.75v105.63l-105.09-19.75V16.34m-7-8.44v119.88l119.09,22.38V30.28L71.32,7.9h0Z"/><path d="m75.03,124.63l-51.31,52.79c-2.71,2.78-7.16,2.85-9.94.14s-2.85-7.16-.14-9.94c.31-.32.67-.62,1.02-.87l60.38-42.12h0Z"/><path d="m190.42,150.16l-52.96,51.47c-2.45,2.38-6.36,2.31-8.73-.15-2.37-2.47-2.3-6.4.15-8.78.24-.24.53-.47.8-.66l54.16-43.11,6.57,1.23h0Z"/><path d="m190.42,30.28l-49.68,50.91c-2.71,2.78-7.17,2.83-9.95.12-2.78-2.71-2.83-7.17-.12-9.95.32-.33.7-.64,1.06-.89l58.69-40.2h0Z"/><path class="cls-2" d="m69.1,0S4.09,44.86,2.18,46.14s-2.18,4.15-2.18,5.26v129.27c0,3.28,2.82,6.37,6.67,7.09s120.88,22.78,125,23.51c4.11.72,6.99-.02,8.91-1.88,1.92-1.87,57.24-55.63,57.24-55.63V24.19S69.1,0,69.1,0Z"/><path d="m71.32,7.9v7.46L17.96,59.54c-2.46,2.38-6.36,2.3-8.73-.17-2.36-2.47-2.29-6.41.17-8.78.24-.23.53-.46.8-.65L71.32,7.9h0Z"/><path class="cls-11" d="m13.57,55.45v119.88l119.09,22.38v-119.88L13.57,55.45Zm59.59,118.48c-26-5.72-47.07-31.66-47.07-57.94,0-26.28,21.07-42.95,47.07-37.24,26,5.72,47.07,31.66,47.07,57.94,0,26.28-21.07,42.95-47.07,37.24Z"/><polygon class="cls-8" points="13.57 55.45 13.57 175.33 132.66 197.71 132.66 77.83 13.57 55.45"/><polyline class="cls-2" points="71.51 12.7 11.56 53.85 11.56 176.95 129.66 199.1 186.28 149.8 186.28 33.41"/><path d="m78.32,16.34l105.09,19.75v105.63l-105.09-19.75V16.34m-7-8.44v119.88l119.09,22.38V30.28L71.32,7.9h0Z"/><path d="m75.03,124.63l-51.31,52.79c-2.71,2.78-7.16,2.85-9.94.14s-2.85-7.16-.14-9.94c.31-.32.67-.62,1.02-.87l60.38-42.12h0Z"/><path d="m190.42,150.16l-52.96,51.47c-2.45,2.38-6.36,2.31-8.73-.15-2.37-2.47-2.3-6.4.15-8.78.24-.24.53-.47.8-.66l54.16-43.11,6.57,1.23h0Z"/><path d="m131.73,70.47l58.69-40.2-49.68,50.91c-2.71,2.78-7.17,2.83-9.95.12-3.17-3.03-2.69-8.4.94-10.84h0Z"/><path d="m71.32,7.9v7.46L17.96,59.54c-2.46,2.38-6.36,2.3-8.73-.17-2.36-2.47-2.29-6.41.17-8.78.24-.23.53-.46.8-.65L71.32,7.9h0Z"/><path class="cls-9" d="m13.57,55.45v119.88l119.09,22.38v-119.88L13.57,55.45Zm59.59,118.48c-26-5.72-47.07-31.66-47.07-57.94,0-26.28,21.07-42.95,47.07-37.24,26,5.72,47.07,31.66,47.07,57.94,0,26.28-21.07,42.95-47.07,37.24Z"/><polygon class="cls-8" points="13.57 55.45 13.57 175.33 132.66 197.71 132.66 77.83 13.57 55.45"/></g></svg>