<?xml version="1.0" encoding="UTF-8"?>
<svg id="Layer_2" xmlns="http://www.w3.org/2000/svg" viewBox="0 0 227.28 164.63">
    <defs><style>.cls-1{fill:#fff;}.cls-1,.cls-2{stroke:#000;stroke-miterlimit:3.97;stroke-width:12px;}.cls-2{fill:#6a4692;}</style></defs>
    <g id="Layer_1-2">
        <path class="cls-2" d="m87.76,137.42c-6.7-1.12-13.38-4.77-18.52-10.65l-43.01-49.2c-10.47-11.98-10.67-28.79-.44-37.54s27.01-6.13,37.48,5.85l25.14,28.76L176.95,10.27c10.83-8.02,27.6-4.41,37.44,8.06,9.85,12.48,9.05,29.1-1.78,37.13l-107.02,78.06c-5.06,3.75-11.45,4.97-17.83,3.9Z"/>
        <path class="cls-1" d="m75.52,158.25c-6.7-1.12-13.38-4.77-18.52-10.65L13.99,98.4c-10.47-11.98-10.67-28.79-.44-37.54s27.01-6.13,37.48,5.85l25.14,28.76L164.71,31.1c10.83-8.02,27.6-4.41,37.44,8.06,9.85,12.48,9.05,29.1-1.78,37.13l-107.02,78.06c-5.06,3.75-11.45,4.97-17.83,3.9Z"/>
    </g>
</svg>