<?xml version="1.0" encoding="UTF-8"?><svg id="Layer_2" xmlns="http://www.w3.org/2000/svg" viewBox="0 0 283.46 86.32"><defs><style>.cls-1{fill:#fff;}</style></defs><g id="AW"><path d="m105,61.89c0,9.09,7.37,16.45,16.45,16.45h40.11v-16.45h-37.76v-11.78h35.28v-14.6h-35.28v-11.39h37.76V7.66h-40.12c-9.08,0-16.44,7.36-16.44,16.44v37.79Z"/><path d="m224.66,56.91h0c0-11.83-9.59-21.41-21.42-21.41h-17.02s0-11.39,0-11.39h35.04s0-16.45,0-16.45h-32.62c-11.72,0-21.23,9.5-21.23,21.23h0c0,11.72,9.5,21.23,21.23,21.23h17.21s0,11.78,0,11.78h-35.04s0,16.45,0,16.45h32.42c11.83,0,21.42-9.6,21.42-21.43Z"/><path d="m247.84,78.34h35.63v-16.45h-33.28V7.66h-18.8v54.23c0,9.09,7.37,16.45,16.45,16.45Z"/><circle cx="43.16" cy="43.16" r="43.16" transform="translate(-6.36 7.47) rotate(-9.22)"/><path class="cls-1" d="m44.79,7.78L11.95,59.92c1.09,2.02,2.37,3.93,3.81,5.69L65.61,15.77c-5.72-4.69-12.93-7.63-20.82-7.99Z"/><path class="cls-1" d="m70.66,20.84l-49.81,49.81c1.77,1.44,3.69,2.71,5.73,3.79l51.97-32.73c-.32-7.9-3.22-15.14-7.88-20.88Z"/><path class="cls-1" d="m77.77,50.66l-42.8,26.95c22.59,5.03,39.61-10.95,42.8-26.95Z"/></g></svg>